<?xml version="1.0" standalone="no"?>
<!DOCTYPE svg PUBLIC "-//W3C//DTD SVG 20010904//EN"
 "http://www.w3.org/TR/2001/REC-SVG-20010904/DTD/svg10.dtd">
<svg version="1.0" xmlns="http://www.w3.org/2000/svg"
 width="168.000000pt" height="198.000000pt" viewBox="0 0 168.000000 198.000000"
 preserveAspectRatio="xMidYMid meet">

<g transform="translate(0.000000,198.000000) scale(0.100000,-0.100000)"
fill="#000000" stroke="none">
<path d="M795 1874 c-256 -63 -390 -179 -485 -418 -17 -43 -35 -101 -41 -130
-6 -28 -31 -85 -55 -127 -50 -87 -69 -163 -54 -219 22 -81 70 -80 70 0 0 69
12 90 54 90 79 0 217 -134 270 -262 15 -36 15 -36 -27 -93 -43 -59 -97 -95
-142 -95 -64 0 -144 74 -152 141 -8 62 -20 84 -39 68 -20 -16 -18 -89 5 -149
16 -41 46 -77 153 -183 117 -115 140 -144 181 -222 26 -50 57 -96 68 -104 12
-7 47 -15 78 -18 74 -7 89 -16 97 -59 6 -31 10 -35 32 -32 20 2 29 11 37 38
15 53 24 63 41 49 8 -6 14 -19 14 -28 0 -28 30 -61 54 -61 43 0 66 30 78 103
10 62 14 69 47 89 219 129 382 278 459 418 42 75 55 157 42 251 -18 124 -46
167 -204 303 -106 92 -111 117 -60 295 74 259 -15 349 -356 357 -80 1 -154 1
-165 -2z m464 -775 c204 -102 202 -394 -4 -494 -48 -24 -64 -27 -129 -23 -64
3 -80 8 -123 37 -28 19 -65 56 -84 84 -31 45 -34 58 -38 134 -3 74 0 90 24
138 68 139 218 192 354 124z m-524 -514 c128 -146 151 -180 135 -200 -18 -21
-46 -19 -81 8 -27 19 -43 22 -127 22 -54 0 -103 4 -109 8 -7 5 -13 24 -13 42
0 53 74 239 92 233 4 -2 50 -52 103 -113z"/>
</g>
</svg>
